<svg width="325" height="425" viewBox="0 0 325 425" fill="none" xmlns="http://www.w3.org/2000/svg">
<rect width="325" height="425" rx="50" fill="#F5FAFF"/>
<mask id="mask0_51_327" style="mask-type:alpha" maskUnits="userSpaceOnUse" x="0" y="0" width="325" height="425">
<rect width="325" height="425" fill="#E7F1FF"/>
</mask>
<g mask="url(#mask0_51_327)">
<g opacity="0.2">
<path fill-rule="evenodd" clip-rule="evenodd" d="M53.2138 115.094C6.25211 96.5879 -48.7262 89.9539 -93.4473 117.561C-133.347 142.192 -158.865 184.869 -175.164 228.696C-191.86 273.588 -201.38 326.301 -204.99 380C-212.117 486.017 -200.942 594.163 -160.992 680.471L-155.54 692.25H-49.846L-63.1969 663.407C-93.8119 597.267 -110.056 481.904 -103.663 386.812C-100.503 339.801 -92.3265 297.297 -79.9791 264.097C-67.2407 229.846 -52.3699 211.551 -40.1011 203.977C-34.9301 200.785 -17.9027 196.225 15.9813 209.578C48.1918 222.271 87.3187 248.386 126.475 288.944C204.387 369.647 277.008 502.026 292.876 676.528L294.555 695H396.028L394.013 672.85C376.047 475.267 293.5 315.736 199.537 218.408C152.825 170.024 101.972 134.308 53.2138 115.094Z" fill="#8FC94F"/>
<path fill-rule="evenodd" clip-rule="evenodd" d="M408.761 224.863C447.012 209.951 494.114 203.633 533.388 227.618C567.737 248.596 589.013 284.458 602.262 319.702C615.896 355.97 623.54 398.16 626.432 440.718C632.043 523.293 628.821 609.927 596.024 680.024L590.548 691.727H482.005L495.536 662.809C506.737 638.869 515.509 603.601 520.767 564.263C525.989 525.196 527.555 483.571 525.11 447.604C522.678 411.812 516.407 379.924 507.202 355.438C497.619 329.947 487.135 318.368 480.455 314.288C480.364 314.245 470.788 309.681 445.649 319.482C422.039 328.686 392.523 348.001 362.569 378.697C303.05 439.689 247.125 540.241 234.898 673.275L233.202 691.727H131.731L133.769 669.557C148.138 513.219 214.174 385.355 289.886 307.77C327.455 269.271 368.698 240.482 408.761 224.863Z" fill="#8FBFFF"/>
<path fill-rule="evenodd" clip-rule="evenodd" d="M278.35 320.121C255.392 345.567 233.554 375.668 214.06 409.788C234.34 447.101 252.14 489.005 265.931 535.218C282.972 489.343 305.211 449.92 329.5 417.505C314.235 382.427 296.981 349.873 278.35 320.121Z" fill="#488BFF"/>
</g>
</g>
</svg>
